<svg width="26" height="26" xmlns="http://www.w3.org/2000/svg"><path clip-rule="evenodd" d="M13 2C6.92487 2 2 6.92487 2 13c0 6.0751 4.92487 11 11 11 6.0751 0 11-4.9249 11-11 0-6.07513-4.9249-11-11-11ZM0 13C0 5.8203 5.8203 0 13 0s13 5.8203 13 13-5.8203 13-13 13S0 20.1797 0 13Z" /><path clip-rule="evenodd" d="M7 13c0-.5523.44772-1 1-1h10c.5523 0 1 .4477 1 1s-.4477 1-1 1H8c-.55228 0-1-.4477-1-1Z" /><path clip-rule="evenodd" d="M13 7c.5523 0 1 .44772 1 1v10c0 .5523-.4477 1-1 1s-1-.4477-1-1V8c0-.55228.4477-1 1-1Z" /></svg>
