<svg width="26" height="26" xmlns="http://www.w3.org/2000/svg"><path clip-rule="evenodd" d="M11.5 2C6.25329 2 2 6.25329 2 11.5c0 5.2467 4.25329 9.5 9.5 9.5 5.2467 0 9.5-4.2533 9.5-9.5C21 6.25329 16.7467 2 11.5 2ZM0 11.5C0 5.14873 5.14873 0 11.5 0 17.8513 0 23 5.14873 23 11.5 23 17.8513 17.8513 23 11.5 23 5.14873 23 0 17.8513 0 11.5Z"/><path clip-rule="evenodd" d="M18.2177 18.2179c.3905-.3905 1.0237-.3905 1.4142 0l6.075 6.075c.3905.3906.3905 1.0237 0 1.4143-.3905.3905-1.0237.3905-1.4142 0l-6.075-6.075c-.3905-.3906-.3905-1.0237 0-1.4143Z"/></svg>
