<svg width="16" height="16" fill="none" xmlns="http://www.w3.org/2000/svg"><g clip-path="url(#a)"><path fill-rule="evenodd" clip-rule="evenodd" d="M1.5 8c0-1.72391.68482-3.37721 1.90381-4.59619C4.62279 2.18482 6.27609 1.5 8 1.5s3.3772.68482 4.5962 1.90381C13.8152 4.62279 14.5 6.27609 14.5 8s-.6848 3.3772-1.9038 4.5962C11.3772 13.8152 9.72391 14.5 8 14.5c-1.72391 0-3.37721-.6848-4.59619-1.9038C2.18482 11.3772 1.5 9.72391 1.5 8ZM8 0C5.87827 0 3.84344.84286 2.34315 2.34315.84285 3.84344 0 5.87827 0 8c0 2.1217.84286 4.1566 2.34315 5.6569C3.84344 15.1571 5.87827 16 8 16c2.1217 0 4.1566-.8429 5.6569-2.3431C15.1571 12.1566 16 10.1217 16 8c0-2.12173-.8429-4.15656-2.3431-5.65685C12.1566.84285 10.1217 0 8 0ZM5 8a1.00003 1.00003 0 0 0 1-1 1.00003 1.00003 0 0 0-1-1 1.00003 1.00003 0 0 0-1 1 1.00003 1.00003 0 0 0 1 1Zm7-1a.99997.99997 0 0 1-1.7071.70711A1.00017 1.00017 0 0 1 10 7a.99997.99997 0 0 1 1.7071-.70711C11.8946 6.48043 12 6.73478 12 7ZM5.32 9.636a.74997.74997 0 0 1 1.038.175l.007.009a1.82142 1.82142 0 0 0 .35.31c.264.178.683.37 1.285.37.602 0 1.02-.192 1.285-.371a1.82142 1.82142 0 0 0 .35-.31l.007-.008a.75002.75002 0 0 1 1.3506.3105.74994.74994 0 0 1-.1286.5595l-.614-.431c.614.43.614.431.613.431v.001l-.001.002-.002.003-.005.007-.014.019a1.98356 1.98356 0 0 1-.184.213 3.32155 3.32155 0 0 1-.53.445A3.76636 3.76636 0 0 1 8 12c-.946 0-1.652-.308-2.126-.63a3.32089 3.32089 0 0 1-.673-.604 1.95245 1.95245 0 0 1-.042-.053l-.014-.02-.005-.006-.002-.003v-.002h-.001l.613-.432-.614.43a.75008.75008 0 0 1-.12451-.5599.75004.75004 0 0 1 .30751-.4841h.001Z" fill="#8FA0AF"/></g><defs><clipPath id="a"><path fill="#fff" d="M0 0h16v16H0z"/></clipPath></defs></svg>