<svg width="24" height="24" xmlns="http://www.w3.org/2000/svg"><g clip-path="url(#a)"><path clip-rule="evenodd" d="m2.38721 4.06868 1.18373 6.80642h7.30376c.6213 0 1.125.5036 1.125 1.125 0 .6213-.5037 1.125-1.125 1.125H3.57094l-1.18373 6.8063 18.50659-7.9313L2.38721 4.06868Zm-.90439 7.93142L.09521 4.02131c-.11218-.64502.09653-1.30428.55948-1.76723.58167-.58167 1.45889-.75061 2.215-.42657L22.9732 10.4433c.6227.2669 1.0265.8792 1.0265 1.5568 0 .6775-.4038 1.2898-1.0265 1.5567L2.86969 22.1726c-.75611.3241-1.63333.1551-2.215-.4265-.46295-.463-.67166-1.1223-.55948-1.7673l1.38761-7.9787Z" /></g><defs><clipPath id="a"><path fill="#fff" d="M0 0h24v24H0z"/></clipPath></defs></svg>
