<svg width="32" height="32" xmlns="http://www.w3.org/2000/svg"><path clip-rule="evenodd" d="M14.5 5C9.25329 5 5 9.25329 5 14.5c0 5.2467 4.25329 9.5 9.5 9.5 5.2467 0 9.5-4.2533 9.5-9.5C24 9.25329 19.7467 5 14.5 5ZM3 14.5C3 8.14873 8.14873 3 14.5 3 20.8513 3 26 8.14873 26 14.5 26 20.8513 20.8513 26 14.5 26 8.14873 26 3 20.8513 3 14.5Z" /><path clip-rule="evenodd" d="M21.2177 21.2179c.3905-.3905 1.0237-.3905 1.4142 0l6.075 6.075c.3905.3906.3905 1.0237 0 1.4143-.3905.3905-1.0237.3905-1.4142 0l-6.075-6.075c-.3905-.3906-.3905-1.0237 0-1.4143Z" /></svg>
