<svg width="24" height="24" xmlns="http://www.w3.org/2000/svg"><path clip-rule="evenodd" d="M17.9999 12.75c0-.4142.3358-.75.75-.75h4.5c.4142 0 .75.3358.75.75s-.3358.75-.75.75h-4.5c-.4142 0-.75-.3358-.75-.75Z" /><path clip-rule="evenodd" d="M20.9999 9.75c.4142 0 .75.3358.75.75V15c0 .4142-.3358.75-.75.75s-.75-.3358-.75-.75v-4.5c0-.4142.3358-.75.75-.75ZM10.1249 4.5c-2.69241 0-4.87502 2.18261-4.87502 4.875 0 2.6924 2.18261 4.875 4.87502 4.875 2.6924 0 4.875-2.1826 4.875-4.875 0-2.69239-2.1826-4.875-4.875-4.875ZM3.74988 9.375C3.74988 5.85418 6.60406 3 10.1249 3c3.5208 0 6.375 2.85418 6.375 6.375 0 3.5208-2.8542 6.375-6.375 6.375-3.52084 0-6.37502-2.8542-6.37502-6.375Z" /><path clip-rule="evenodd" d="M10.1248 15.7489a9.74925 9.74925 0 0 0-4.12069.9136 9.74957 9.74957 0 0 0-3.34848 2.5695c-.26624.3174-.73931.3588-1.05662.0925-.31732-.2662-.35873-.7393-.09249-1.0566a11.25144 11.25144 0 0 1 3.86363-2.9649 11.2504 11.2504 0 0 1 9.50935 0 11.25096 11.25096 0 0 1 3.8636 2.9649c.2663.3173.2249.7904-.0925 1.0566-.3173.2663-.7903.2249-1.0566-.0925a9.74908 9.74908 0 0 0-3.3485-2.5695 9.74926 9.74926 0 0 0-4.1207-.9136Z" /></svg>
