<svg width="24" height="24" xmlns="http://www.w3.org/2000/svg"><path clip-rule="evenodd" d="M4.18934 2.68934A1.5 1.5 0 0 1 5.25 2.25h9c.1989 0 .3897.07902.5303.21967l5.25 5.25A.74983.74983 0 0 1 20.25 8.25v12c0 .3978-.158.7794-.4393 1.0607a1.5001 1.5001 0 0 1-1.0607.4393H5.25a1.5 1.5 0 0 1-1.06066-.4393A1.50015 1.50015 0 0 1 3.75 20.25V3.75a1.5 1.5 0 0 1 .43934-1.06066ZM13.9393 3.75H5.25v16.5h13.5V8.56066L13.9393 3.75Z"/><path clip-rule="evenodd" d="M14.25 2.25c.4142 0 .75.33579.75.75v4.5h4.5c.4142 0 .75.33579.75.75s-.3358.75-.75.75h-5.25c-.4142 0-.75-.33579-.75-.75V3c0-.41421.3358-.75.75-.75ZM8.25 12.75c0-.4142.33579-.75.75-.75h6c.4142 0 .75.3358.75.75s-.3358.75-.75.75H9c-.41421 0-.75-.3358-.75-.75ZM8.25 15.75c0-.4142.33579-.75.75-.75h6c.4142 0 .75.3358.75.75s-.3358.75-.75.75H9c-.41421 0-.75-.3358-.75-.75Z"/></svg>
