<svg width="24" height="24" fill="none" xmlns="http://www.w3.org/2000/svg"><path fill-rule="evenodd" clip-rule="evenodd" d="M2.25 5.25c0-.82843.67157-1.5 1.5-1.5h16.5c.8284 0 1.5.67157 1.5 1.5v13.5c0 .8284-.6716 1.5-1.5 1.5H3.75c-.82843 0-1.5-.6716-1.5-1.5V5.25Zm18 0H3.75v13.5h16.5V5.25Z" fill="#1E1E1E"/><path fill-rule="evenodd" clip-rule="evenodd" d="M7.67067 10.177a1.50054 1.50054 0 0 1 .57933-.1164 1.50004 1.50004 0 0 1 1.06637.4451L13.5 14.6894l.004-.0041 1.9297-1.9296a1.5005 1.5005 0 0 1 .487-.3287c.1835-.0768.3804-.1164.5793-.1164.1989 0 .3958.0396.5793.1164.1824.0764.3479.1881.487.3287l3.964 3.964c.2929.2929.2929.7677 0 1.0606-.2929.2929-.7677.2929-1.0606 0L16.5 13.8107l-.004.004-1.9273 1.9272-.0023.0024a1.49987 1.49987 0 0 1-.4871.3287 1.50046 1.50046 0 0 1-.5793.1164c-.1989 0-.3958-.0396-.5793-.1164a1.49987 1.49987 0 0 1-.4871-.3287l-4.18362-4.1836-.00401.004-4.71564 4.7156c-.29289.2929-.76777.2929-1.06066 0s-.29289-.7677 0-1.0606l4.71392-4.7139a1.49892 1.49892 0 0 1 .48708-.3288Z" fill="#1E1E1E"/><path d="M14.625 10.5c.6213 0 1.125-.50368 1.125-1.125s-.5037-1.125-1.125-1.125-1.125.50368-1.125 1.125.5037 1.125 1.125 1.125Z" fill="#1E1E1E"/></svg>