<svg width="24" height="24" xmlns="http://www.w3.org/2000/svg"><path clip-rule="evenodd" d="M18.75 17.25c-.8284 0-1.5.6716-1.5 1.5s.6716 1.5 1.5 1.5 1.5-.6716 1.5-1.5-.6716-1.5-1.5-1.5Zm-3 1.5c0-1.6569 1.3431-3 3-3s3 1.3431 3 3-1.3431 3-3 3-3-1.3431-3-3Z" /><path clip-rule="evenodd" d="M6 5.25c0-.41421.33579-.75.75-.75h9c.9946 0 1.9484.39509 2.6517 1.09835A3.75021 3.75021 0 0 1 19.5 8.25a3.7504 3.7504 0 0 1-1.0983 2.6517A3.75033 3.75033 0 0 1 15.75 12h-9a3.00006 3.00006 0 0 0-3 3 3.00002 3.00002 0 0 0 3 3h9.75c.4142 0 .75.3358.75.75s-.3358.75-.75.75H6.75a4.5 4.5 0 0 1-4.5-4.5 4.5 4.5 0 0 1 4.5-4.5h9c.5967 0 1.169-.2371 1.591-.65901A2.25023 2.25023 0 0 0 18 8.25a2.25023 2.25023 0 0 0-.659-1.59099A2.25015 2.25015 0 0 0 15.75 6h-9C6.33579 6 6 5.66421 6 5.25Z" /></svg>
