<svg width="24" height="24" xmlns="http://www.w3.org/2000/svg"><path clip-rule="evenodd" d="M3 5.25c0-.41421.33579-.75.75-.75h16.5c.4142 0 .75.33579.75.75s-.3358.75-.75.75H3.75C3.33579 6 3 5.66421 3 5.25ZM9.75 9c.4142 0 .75.33579.75.75v6c0 .4142-.3358.75-.75.75-.41421 0-.75-.3358-.75-.75v-6c0-.41421.33579-.75.75-.75ZM14.25 9c.4142 0 .75.33579.75.75v6c0 .4142-.3358.75-.75.75s-.75-.3358-.75-.75v-6c0-.41421.3358-.75.75-.75Z" /><path clip-rule="evenodd" d="M5.25 4.5c.41421 0 .75.33579.75.75V19.5h12V5.25c0-.41421.3358-.75.75-.75s.75.33579.75.75V19.5c0 .3978-.158.7794-.4393 1.0607A1.5001 1.5001 0 0 1 18 21H6a1.5 1.5 0 0 1-1.06066-.4393A1.50015 1.50015 0 0 1 4.5 19.5V5.25c0-.41421.33579-.75.75-.75Z" /><path clip-rule="evenodd" d="M8.15901 2.15901A2.24999 2.24999 0 0 1 9.75 1.5h4.5c.5967 0 1.169.23705 1.591.65901.4219.42196.659.99425.659 1.59099v1.5c0 .41421-.3358.75-.75.75S15 5.66421 15 5.25v-1.5a.74983.74983 0 0 0-.2197-.53033A.74987.74987 0 0 0 14.25 3h-4.5a.75001.75001 0 0 0-.75.75v1.5c0 .41421-.33579.75-.75.75s-.75-.33579-.75-.75v-1.5c0-.59674.23705-1.16903.65901-1.59099Z" /></svg>
