<svg width="26" height="23" xmlns="http://www.w3.org/2000/svg"><path fill-rule="evenodd" clip-rule="evenodd" d="M8.16795.4453A1 1 0 0 1 9 0h8c.3344 0 .6466.1671.8321.4453L19.5352 3H23a3.00006 3.00006 0 0 1 3 3v14a2.9999 2.9999 0 0 1-.8787 2.1213A2.9999 2.9999 0 0 1 23 23H3a3.00006 3.00006 0 0 1-3-3V6a3 3 0 0 1 3-3h3.46482L8.16795.4453ZM9.53518 2 7.83205 4.5547A1 1 0 0 1 7 5H3a1.00003 1.00003 0 0 0-1 1v14a.99997.99997 0 0 0 1 1h20c.2652 0 .5196-.1054.7071-.2929A1.0001 1.0001 0 0 0 24 20V6a.99997.99997 0 0 0-1-1h-4c-.3344 0-.6466-.1671-.8321-.4453L16.4648 2H9.53518Z"/><path fill-rule="evenodd" clip-rule="evenodd" d="M13 9c-1.933 0-3.5 1.567-3.5 3.5S11.067 16 13 16s3.5-1.567 3.5-3.5S14.933 9 13 9Zm-5.5 3.5C7.5 9.46243 9.96243 7 13 7c3.0376 0 5.5 2.46243 5.5 5.5 0 3.0376-2.4624 5.5-5.5 5.5-3.03757 0-5.5-2.4624-5.5-5.5Z"/></svg>
