<svg width="32" height="32" xmlns="http://www.w3.org/2000/svg"><path clip-rule="evenodd" d="M25.7071 6.29289c.3905.39053.3905 1.02369 0 1.41422L7.70711 25.7071c-.39053.3905-1.02369.3905-1.41422 0-.39052-.3905-.39052-1.0237 0-1.4142L24.2929 6.29289c.3905-.39052 1.0237-.39052 1.4142 0Z"/><path clip-rule="evenodd" d="M6.29289 6.29289c.39053-.39052 1.02369-.39052 1.41422 0L25.7071 24.2929c.3905.3905.3905 1.0237 0 1.4142-.3905.3905-1.0237.3905-1.4142 0L6.29289 7.70711c-.39052-.39053-.39052-1.02369 0-1.41422Z" /></svg>
