<svg width="20" height="20" fill="none" xmlns="http://www.w3.org/2000/svg"><path fill-rule="evenodd" clip-rule="evenodd" d="M11.5651 2.77114a3.12483 3.12483 0 0 1 2.1752-.80828 3.12524 3.12524 0 0 1 2.1328.91435A3.12484 3.12484 0 0 1 16.7874 5.01a3.12532 3.12532 0 0 1-.8083 2.1752.58456.58456 0 0 1-.0181.01918L8.20318 15.0716a.68558.68558 0 0 1-.02537.0243 1.87512 1.87512 0 0 1-1.30512.485 1.87507 1.87507 0 0 1-1.27968-.5487 1.87486 1.87486 0 0 1-.5486-1.2796 1.87517 1.87517 0 0 1 .48496-1.3052.54867.54867 0 0 1 .01755-.0185l6.50778-6.61722c.2421-.24611.6378-.24941.8839-.00737.2461.24203.2494.63775.0073.88385L6.44864 13.2947a.62472.62472 0 0 0-.15461.4271.62516.62516 0 0 0 .18287.4266.6249.6249 0 0 0 .42655.1828.62474.62474 0 0 0 .42414-.152L15.061 6.33678a1.8753 1.8753 0 0 0 .4768-1.29602 1.87537 1.87537 0 0 0-.5486-1.27967 1.87507 1.87507 0 0 0-2.5727-.07454L4.66885 11.5434a3.12047 3.12047 0 0 0-.00001 4.413 3.1205 3.1205 0 0 0 2.2065.914 3.1205 3.1205 0 0 0 2.2065-.914l6.41456-6.39896c.2444-.24378.6401-.2433.8839.00108.2438.24437.2433.64008-.0011.88388l-6.41348 6.3979a4.37056 4.37056 0 0 1-3.09038 1.2801 4.3705 4.3705 0 0 1-4.37046-4.3705c0-1.1583.45986-2.2693 1.27846-3.0887l7.75636-7.86574a.59538.59538 0 0 1 .0254-.02432Z" fill="#8FA0AF"/></svg>